<?xml version="1.0" standalone="no"?>
<!DOCTYPE svg PUBLIC "-//W3C//DTD SVG 20010904//EN"
 "http://www.w3.org/TR/2001/REC-SVG-20010904/DTD/svg10.dtd">
<svg version="1.0" xmlns="http://www.w3.org/2000/svg"
 width="138.000000pt" height="145.000000pt" viewBox="0 0 138.000000 145.000000"
 preserveAspectRatio="xMidYMid meet">
<metadata>
Created by potrace 1.16, written by Peter Selinger 2001-2019
</metadata>
<g transform="translate(0.000000,145.000000) scale(0.100000,-0.100000)"
fill="#000000" stroke="none">
<path d="M538 1283 c6 -2 18 -2 25 0 6 3 1 5 -13 5 -14 0 -19 -2 -12 -5z"/>
<path d="M502 1223 c-26 -38 -34 -53 -29 -53 2 0 16 18 31 40 29 45 28 56 -2
13z"/>
<path d="M468 1153 c6 -2 18 -2 25 0 6 3 1 5 -13 5 -14 0 -19 -2 -12 -5z"/>
<path d="M470 1129 c-147 -13 -324 -40 -335 -51 -7 -7 0 -8 20 -4 116 22 239
31 447 31 171 0 238 3 238 11 0 7 -10 14 -22 18 -31 8 -232 5 -348 -5z"/>
<path d="M381 1068 c0 -22 1 -22 9 -3 8 19 9 19 9 -2 1 -12 -5 -24 -11 -26 -8
-3 -5 -6 5 -6 14 -1 18 5 15 26 -4 34 -28 44 -27 11z"/>
<path d="M447 1063 c-22 -11 -26 -18 -17 -27 8 -8 14 -7 23 5 7 9 19 14 27 12
12 -4 12 -3 1 5 -11 8 -11 10 0 15 8 3 10 5 4 5 -5 0 -23 -7 -38 -15z"/>
<path d="M533 1069 c-13 -13 -6 -39 9 -39 7 0 6 5 -1 13 -8 10 -7 17 1 25 7 7
10 12 7 12 -3 0 -10 -5 -16 -11z"/>
<path d="M565 1071 c-3 -5 0 -13 6 -17 8 -4 7 -9 -2 -15 -10 -6 -10 -9 -2 -9
16 0 26 17 13 25 -6 4 -8 11 -5 16 4 5 4 9 1 9 -3 0 -7 -4 -11 -9z"/>
<path d="M501 1054 c0 -11 3 -14 6 -6 3 7 2 16 -1 19 -3 4 -6 -2 -5 -13z"/>
<path d="M490 1016 c0 -2 8 -10 18 -17 15 -13 16 -12 3 4 -13 16 -21 21 -21
13z"/>
<path d="M418 943 c6 -2 10 -9 7 -13 -3 -5 4 -17 15 -28 13 -12 23 -39 28 -79
l9 -62 -36 1 c-20 0 -41 -2 -47 -4 -7 -1 -11 2 -10 7 0 6 15 10 32 9 l31 0 0
60 c-1 34 -2 47 -4 30 -4 -33 -6 -34 -90 -46 -6 -1 -17 -13 -25 -27 -7 -14
-17 -30 -23 -34 -6 -5 0 -7 13 -4 35 8 26 -2 -18 -19 -43 -17 -51 -36 -22 -54
16 -11 16 -11 -1 -6 -10 3 -16 2 -13 -2 3 -5 6 -45 7 -90 2 -58 7 -82 15 -82
7 0 16 -5 20 -12 5 -8 0 -9 -14 -6 -12 4 -22 2 -22 -2 0 -13 107 -17 225 -7
120 9 185 22 185 37 0 12 6 13 -81 -4 -82 -16 -237 -27 -219 -16 7 4 8 9 3 11
-5 2 -16 22 -25 44 -11 28 -22 40 -35 39 -20 -1 -30 31 -12 41 5 4 9 -1 9 -9
0 -9 5 -16 10 -16 6 0 10 13 10 29 0 23 -5 30 -22 33 -13 2 42 1 121 -1 156
-4 243 9 261 37 9 14 10 10 7 -16 l-4 -32 91 7 c50 5 180 8 289 8 l197 0 0 88
0 87 -369 0 c-361 0 -370 0 -376 -20 -3 -11 -3 -29 0 -40 4 -11 2 -20 -4 -20
-6 0 -11 12 -11 28 0 15 -5 34 -10 42 -9 13 -11 13 -20 0 -13 -19 -13 -8 0 25
9 23 6 30 -26 61 -20 19 -42 34 -48 33 -7 0 -6 -3 2 -6z m17 -144 c11 -17 -12
-17 -35 1 l-24 18 27 -5 c15 -3 30 -9 32 -14z m505 -4 c-7 -9 -15 -13 -18 -10
-3 2 1 11 8 20 7 9 15 13 18 10 3 -2 -1 -11 -8 -20z m26 0 c-5 -18 -2 -25 8
-25 19 0 27 -25 13 -41 -10 -12 -9 -12 2 -1 23 19 58 15 64 -8 4 -17 0 -20
-31 -20 -21 0 -62 -3 -92 -6 -53 -5 -54 -5 -35 12 17 14 17 16 3 11 -10 -4
-18 -1 -18 4 0 6 -9 9 -20 6 -25 -6 -26 13 -2 42 21 25 67 19 57 -8 -3 -9 6
-2 19 14 14 17 25 33 26 38 0 4 3 7 6 7 3 0 3 -11 0 -25z m-287 -64 c7 -5 12
-13 10 -18 -2 -5 -12 -1 -21 9 -19 19 -13 24 11 9z m-276 -48 c-7 -2 -21 -2
-30 0 -10 3 -4 5 12 5 17 0 24 -2 18 -5z m105 -10 c-10 -2 -26 -2 -35 0 -10 3
-2 5 17 5 19 0 27 -2 18 -5z m-208 -113 c0 -5 -5 -10 -11 -10 -5 0 -7 5 -4 10
3 6 8 10 11 10 2 0 4 -4 4 -10z m35 1 c3 -5 1 -12 -4 -15 -5 -3 -11 1 -15 9
-6 16 9 21 19 6z m-5 -46 c0 -9 -6 -12 -16 -8 -13 5 -13 7 -2 14 17 11 18 11
18 -6z"/>
<path d="M938 723 c7 -3 16 -2 19 1 4 3 -2 6 -13 5 -11 0 -14 -3 -6 -6z"/>
<path d="M143 765 c0 -22 2 -30 4 -17 2 12 2 30 0 40 -3 9 -5 -1 -4 -23z"/>
<path d="M225 688 c-4 -13 -7 -26 -6 -30 1 -8 -26 -4 -35 5 -4 4 1 7 11 7 21
0 12 13 -10 16 -8 1 -15 -4 -15 -12 0 -9 -3 -13 -8 -10 -11 7 -37 -17 -38 -36
-1 -10 2 -15 7 -12 5 3 9 0 9 -5 0 -6 -4 -11 -9 -11 -5 0 -9 -49 -10 -110 l-2
-110 66 0 65 0 0 116 c0 65 -5 124 -11 136 -8 15 -8 19 0 14 6 -4 11 -2 11 3
0 6 -6 11 -12 11 -9 0 -9 3 -3 8 12 8 13 27 4 37 -4 3 -10 -5 -14 -17z m-15
-71 c0 -15 -20 -37 -33 -37 -4 0 -6 4 -2 9 3 5 0 13 -6 17 -8 4 -7 9 2 15 20
13 39 11 39 -4z m-10 -51 c0 -3 -4 -8 -10 -11 -5 -3 -10 -1 -10 4 0 6 5 11 10
11 6 0 10 -2 10 -4z"/>
<path d="M760 608 c0 -14 6 -25 14 -25 16 0 16 39 -1 45 -8 2 -13 -6 -13 -20z"/>
<path d="M804 607 c-7 -19 2 -37 19 -37 8 0 7 3 -2 9 -11 7 -11 9 0 14 11 3
11 7 2 17 -10 11 -14 10 -19 -3z"/>
<path d="M845 611 c-3 -5 -1 -12 5 -16 6 -4 7 -11 4 -17 -4 -7 -2 -8 5 -4 8 6
9 12 2 20 -6 7 -8 16 -4 19 3 4 4 7 0 7 -3 0 -8 -4 -12 -9z"/>
<path d="M882 600 c0 -14 2 -19 5 -12 2 6 2 18 0 25 -3 6 -5 1 -5 -13z"/>
<path d="M904 605 c-4 -9 -2 -21 4 -27 8 -8 9 -5 5 11 -6 24 13 30 20 6 4 -12
5 -11 3 1 -2 23 -25 30 -32 9z"/>
<path d="M990 613 c7 -3 5 -10 -6 -17 -13 -10 -14 -15 -4 -21 9 -6 11 -4 5 5
-6 10 -4 12 9 7 13 -5 17 -2 14 10 -2 9 -9 18 -16 19 -7 1 -8 0 -2 -3z"/>
<path d="M1022 600 c0 -14 2 -19 5 -12 2 6 2 18 0 25 -3 6 -5 1 -5 -13z"/>
<path d="M1047 613 c-14 -13 -7 -32 9 -26 11 4 12 8 4 13 -9 6 -9 9 1 13 8 3
9 6 3 6 -6 1 -14 -2 -17 -6z"/>
<path d="M513 578 c-15 -20 -25 -38 -20 -38 3 0 12 11 21 25 17 26 16 35 -1
13z"/>
<path d="M481 514 c0 -11 3 -14 6 -6 3 7 2 16 -1 19 -3 4 -6 -2 -5 -13z"/>
<path d="M513 513 c9 -2 23 -2 30 0 6 3 -1 5 -18 5 -16 0 -22 -2 -12 -5z"/>
<path d="M603 463 c-7 -2 -13 -10 -13 -15 0 -13 -59 -68 -72 -68 -5 0 -6 -4
-3 -10 3 -5 1 -10 -4 -10 -6 0 -11 5 -11 10 0 6 -4 10 -10 10 -5 0 -10 -15
-10 -32 0 -26 -3 -30 -11 -18 -8 11 -9 -1 -6 -43 4 -67 14 -77 75 -77 35 0 42
-3 42 -20 0 -12 -7 -20 -17 -21 -10 0 -13 -3 -6 -5 30 -13 95 58 74 79 -19 19
-13 92 9 120 13 16 20 40 20 66 0 36 -3 41 -22 40 -13 0 -29 -3 -35 -6z m-70
-140 c-7 -58 -19 -77 -17 -25 2 33 12 72 19 72 1 0 0 -21 -2 -47z m12 -84 c4
-6 13 -8 21 -5 7 3 16 1 19 -4 4 -6 -3 -10 -14 -10 -11 0 -23 5 -26 11 -4 6
-14 8 -22 5 -8 -3 -11 -1 -8 4 8 13 22 13 30 -1z"/>
<path d="M268 360 c2 -55 7 -100 12 -100 5 0 7 -6 5 -12 -6 -16 31 -78 45 -78
6 0 8 5 4 11 -5 8 -1 8 14 0 32 -17 63 -14 60 7 -2 11 4 18 20 20 20 3 22 9
22 67 0 35 -5 67 -11 70 -7 5 -5 13 6 26 16 17 16 18 -8 24 -14 4 -30 4 -36 1
-5 -4 -13 -1 -17 5 -4 7 -3 9 4 5 6 -3 13 -2 17 4 3 6 -1 13 -9 16 -9 3 -14
10 -11 14 5 8 -41 21 -48 13 -7 -6 5 -53 12 -48 4 2 8 -2 8 -10 0 -8 -5 -13
-11 -12 -6 1 -10 -4 -8 -11 1 -8 -2 -11 -8 -7 -6 3 -8 10 -5 15 3 4 -2 11 -11
14 -8 3 -13 10 -10 15 5 7 -25 51 -35 51 -2 0 -3 -45 -1 -100z m137 10 c3 -5
1 -10 -4 -10 -6 0 -11 5 -11 10 0 6 2 10 4 10 3 0 8 -4 11 -10z m-68 -42 c-3
-8 -6 -5 -6 6 -1 11 2 17 5 13 3 -3 4 -12 1 -19z m-18 -82 c-1 -20 -1 -21 -6
-1 -3 11 -9 24 -14 30 -5 5 -9 14 -9 20 0 5 7 1 15 -9 8 -11 14 -29 14 -40z
m21 50 c0 -3 -4 -8 -10 -11 -5 -3 -10 -1 -10 4 0 6 5 11 10 11 6 0 10 -2 10
-4z"/>
<path d="M440 441 c0 -6 4 -13 10 -16 6 -3 7 1 4 9 -7 18 -14 21 -14 7z"/>
<path d="M560 439 c0 -5 5 -7 10 -4 6 3 10 8 10 11 0 2 -4 4 -10 4 -5 0 -10
-5 -10 -11z"/>
<path d="M892 410 c-11 -18 -10 -20 8 -20 29 0 37 -28 14 -46 -18 -15 -18 -15
6 -10 14 3 32 1 40 -4 9 -6 18 -3 26 8 11 14 9 21 -13 39 -14 13 -30 20 -34
17 -5 -3 -9 4 -9 15 0 27 -21 27 -38 1z"/>
<path d="M830 395 c0 -7 30 -13 34 -7 3 4 -4 9 -15 9 -10 1 -19 0 -19 -2z"/>
<path d="M820 290 c0 -5 7 -10 16 -10 8 0 12 5 9 10 -3 6 -10 10 -16 10 -5 0
-9 -4 -9 -10z"/>
<path d="M908 292 c-27 -2 -48 -8 -48 -13 0 -6 4 -8 9 -4 6 3 37 6 70 6 34 1
63 4 65 8 4 7 -24 8 -96 3z"/>
<path d="M743 243 c9 -2 23 -2 30 0 6 3 -1 5 -18 5 -16 0 -22 -2 -12 -5z"/>
<path d="M858 243 c6 -2 18 -2 25 0 6 3 1 5 -13 5 -14 0 -19 -2 -12 -5z"/>
</g>
</svg>
